<svg width="20" height="16" viewBox="0 0 20 16" fill="none" xmlns="http://www.w3.org/2000/svg">
<path d="M6 9H4C3.4 9 3 9.4 3 10C3 10.6 3.4 11 4 11H6C6.6 11 7 10.6 7 10C7 9.4 6.6 9 6 9Z" fill="#27B973"/>
<path d="M14 9H16C16.6 9 17 9.4 17 10C17 10.6 16.6 11 16 11H14C13.4 11 13 10.6 13 10C13 9.4 13.4 9 14 9Z" fill="#27B973"/>
<path fill-rule="evenodd" clip-rule="evenodd" d="M18.2 1.4C17.9 0.6 17.2 0 16.3 0H3.7C2.9 0 2.1 0.5 1.8 1.4L0 7V15C0 15.6 0.4 16 1 16H4C4.4 16 4.7 15.8 4.9 15.4L5.6 14H14.4L15.1 15.4C15.3 15.7 15.6 16 16 16H19C19.6 16 20 15.6 20 15V7L18.2 1.4ZM16.3 2L17.6 6H2.4L3.7 2H16.3ZM16.6 14L15.9 12.6C15.7 12.2 15.4 12 15 12H5C4.6 12 4.3 12.2 4.1 12.6L3.4 14H2V8H18V14H16.6Z" fill="#27B973"/>
</svg>
