<svg width="24" height="24" fill="none" xmlns="http://www.w3.org/2000/svg"><circle cx="12" cy="12" r="9" stroke="#2F313F" stroke-width="2" stroke-linecap="round" stroke-linejoin="round"/><path d="M17 4.5C15.5 5 13.5 6 13.5 8s2 2 2.5 3 0 4-1 6c-.75 1.5 6-1.5 6-4.5M7.5 5c.833.5 2.5.8 2.5 2 0 1.5-1.5 0-3 2.5-.833 1.388-3.167.333-3.5 0M11.5 16c.667.5.5 1.571-1.5 1-2-.572-3.139-2.475-3.5-3.5-.338-.848-.931-2.284.5-3 1-.5 2 0 3 1s-.26 3.18 1.5 4.5z" stroke="#2F313F" stroke-width="2" stroke-linecap="round" stroke-linejoin="round"/></svg>